<svg width="31" height="30" viewBox="0 0 31 30" fill="none" xmlns="http://www.w3.org/2000/svg">
<path d="M30 22.3667V28.26C30.0002 28.682 29.8403 29.0883 29.5527 29.397C29.265 29.7057 28.8709 29.8938 28.45 29.9233C27.7217 29.9733 27.1267 30 26.6667 30C11.9383 30 0 18.0617 0 3.33333C0 2.87333 0.025 2.27833 0.0766667 1.55C0.106204 1.12907 0.294302 0.735018 0.603006 0.447348C0.91171 0.159678 1.31804 -0.000190722 1.74 4.27632e-07H7.63333C7.84007 -0.000208891 8.03949 0.0764317 8.19288 0.215034C8.34627 0.353636 8.44266 0.544305 8.46333 0.750001C8.50167 1.13333 8.53667 1.43833 8.57 1.67C8.90122 3.98154 9.58 6.22972 10.5833 8.33833C10.7417 8.67167 10.6383 9.07 10.3383 9.28333L6.74167 11.8533C8.94076 16.9774 13.0242 21.0609 18.1483 23.26L20.715 19.67C20.8199 19.5233 20.973 19.4181 21.1475 19.3728C21.322 19.3274 21.5069 19.3447 21.67 19.4217C23.7784 20.4231 26.026 21.1002 28.3367 21.43C28.5683 21.4633 28.8733 21.5 29.2533 21.5367C29.4587 21.5577 29.649 21.6543 29.7873 21.8076C29.9255 21.961 30.0019 22.1602 30.0017 22.3667H30Z" fill="#5051F9"/>
</svg>
