<svg width="28" height="28" viewBox="0 0 28 28" fill="none" xmlns="http://www.w3.org/2000/svg">
<path d="M25.3333 19.4271H8.66667M8.66667 19.4271V2.76042M8.66667 19.4271L2.66667 25.4271M2.66667 8.76042H19.3333M19.3333 8.76042V25.4271M19.3333 8.76042L25.3333 2.76042M26 18.5434V3.16042C26 2.78705 26 2.60036 25.9273 2.45776C25.8634 2.33231 25.7614 2.23033 25.636 2.16641C25.4934 2.09375 25.3067 2.09375 24.9333 2.09375H9.55032C9.2242 2.09375 9.06114 2.09375 8.90769 2.13059C8.77164 2.16325 8.64158 2.21712 8.52229 2.29023C8.38773 2.37269 8.27243 2.48799 8.04183 2.71859L2.62484 8.13558C2.39424 8.36618 2.27894 8.48148 2.19648 8.61604C2.12337 8.73533 2.0695 8.86539 2.03684 9.00144C2 9.15489 2 9.31795 2 9.64407V25.0271C2 25.4005 2 25.5871 2.07266 25.7297C2.13658 25.8552 2.23856 25.9572 2.36401 26.0211C2.50661 26.0938 2.6933 26.0938 3.06667 26.0938H18.4497C18.7758 26.0938 18.9389 26.0938 19.0923 26.0569C19.2284 26.0243 19.3584 25.9704 19.4777 25.8973C19.6123 25.8148 19.7276 25.6995 19.9582 25.4689L25.3752 20.0519C25.6058 19.8213 25.7211 19.706 25.8035 19.5715C25.8766 19.4522 25.9305 19.3221 25.9632 19.1861C26 19.0326 26 18.8696 26 18.5434Z" stroke="#5051F9" stroke-width="2.35469" stroke-linecap="round" stroke-linejoin="round"/>
</svg>
