<svg width="30" height="30" viewBox="0 0 30 30" fill="none" xmlns="http://www.w3.org/2000/svg">
<path d="M14.9993 1.76074L13.264 8.70206C12.9254 10.0565 12.7561 10.7338 12.4035 11.2849C12.0915 11.7723 11.6776 12.1863 11.1901 12.4982C10.6391 12.8508 9.96181 13.0201 8.60734 13.3587L1.66602 15.0941L8.60733 16.8294C9.96181 17.168 10.6391 17.3373 11.1901 17.69C11.6776 18.0019 12.0916 18.4158 12.4035 18.9033C12.7561 19.4544 12.9254 20.1316 13.264 21.4861L14.9994 28.4274L16.7347 21.4861C17.0733 20.1316 17.2426 19.4544 17.5952 18.9033C17.9071 18.4158 18.3211 18.0019 18.8086 17.69C19.3596 17.3373 20.0369 17.168 21.3914 16.8294L28.3327 15.0941L21.3914 13.3587C20.0369 13.0201 19.3596 12.8508 18.8086 12.4982C18.3211 12.1863 17.9071 11.7723 17.5952 11.2849C17.2426 10.7338 17.0733 10.0565 16.7347 8.70206L14.9993 1.76074Z" stroke="#5051F9" stroke-width="2.35469" stroke-linecap="round" stroke-linejoin="round"/>
</svg>
